<?xml version="1.0" encoding="UTF-8" standalone="no"?>
<!DOCTYPE svg PUBLIC "-//W3C//DTD SVG 1.1//EN"
 "http://www.w3.org/Graphics/SVG/1.1/DTD/svg11.dtd">
<!-- Generated by graphviz version 2.38.0 (20140413.2041)
 -->
<!-- Title: graphname Pages: 1 -->
<svg width="163pt" height="332pt"
 viewBox="0.00 0.00 162.69 332.00" xmlns="http://www.w3.org/2000/svg" xmlns:xlink="http://www.w3.org/1999/xlink">
<g id="graph0" class="graph" transform="scale(1 1) rotate(0) translate(4 328)">
<title>graphname</title>
<polygon fill="white" stroke="none" points="-4,4 -4,-328 158.686,-328 158.686,4 -4,4"/>
<!-- pci_register_driver -->
<g id="node1" class="node"><title>pci_register_driver</title>
<ellipse fill="none" stroke="black" cx="77.3431" cy="-306" rx="77.1866" ry="18"/>
<text text-anchor="middle" x="77.3431" y="-302.3" font-family="Times,serif" font-size="14.00">pci_register_driver</text>
</g>
<!-- driver_register -->
<g id="node2" class="node"><title>driver_register</title>
<ellipse fill="none" stroke="black" cx="77.3431" cy="-234" rx="62.2891" ry="18"/>
<text text-anchor="middle" x="77.3431" y="-230.3" font-family="Times,serif" font-size="14.00">driver_register</text>
</g>
<!-- pci_register_driver&#45;&gt;driver_register -->
<g id="edge1" class="edge"><title>pci_register_driver&#45;&gt;driver_register</title>
<path fill="none" stroke="black" d="M77.3431,-287.697C77.3431,-279.983 77.3431,-270.712 77.3431,-262.112"/>
<polygon fill="black" stroke="black" points="80.8432,-262.104 77.3431,-252.104 73.8432,-262.104 80.8432,-262.104"/>
</g>
<!-- bus_add_driver -->
<g id="node3" class="node"><title>bus_add_driver</title>
<ellipse fill="none" stroke="black" cx="77.3431" cy="-162" rx="65.7887" ry="18"/>
<text text-anchor="middle" x="77.3431" y="-158.3" font-family="Times,serif" font-size="14.00">bus_add_driver</text>
</g>
<!-- driver_register&#45;&gt;bus_add_driver -->
<g id="edge2" class="edge"><title>driver_register&#45;&gt;bus_add_driver</title>
<path fill="none" stroke="black" d="M77.3431,-215.697C77.3431,-207.983 77.3431,-198.712 77.3431,-190.112"/>
<polygon fill="black" stroke="black" points="80.8432,-190.104 77.3431,-180.104 73.8432,-190.104 80.8432,-190.104"/>
</g>
<!-- driver_attach -->
<g id="node4" class="node"><title>driver_attach</title>
<ellipse fill="none" stroke="black" cx="77.3431" cy="-90" rx="57.3905" ry="18"/>
<text text-anchor="middle" x="77.3431" y="-86.3" font-family="Times,serif" font-size="14.00">driver_attach</text>
</g>
<!-- bus_add_driver&#45;&gt;driver_attach -->
<g id="edge3" class="edge"><title>bus_add_driver&#45;&gt;driver_attach</title>
<path fill="none" stroke="black" d="M77.3431,-143.697C77.3431,-135.983 77.3431,-126.712 77.3431,-118.112"/>
<polygon fill="black" stroke="black" points="80.8432,-118.104 77.3431,-108.104 73.8432,-118.104 80.8432,-118.104"/>
</g>
<!-- bus_for_each_dev -->
<g id="node5" class="node"><title>bus_for_each_dev</title>
<ellipse fill="none" stroke="black" cx="77.3431" cy="-18" rx="75.2868" ry="18"/>
<text text-anchor="middle" x="77.3431" y="-14.3" font-family="Times,serif" font-size="14.00">bus_for_each_dev</text>
</g>
<!-- driver_attach&#45;&gt;bus_for_each_dev -->
<g id="edge4" class="edge"><title>driver_attach&#45;&gt;bus_for_each_dev</title>
<path fill="none" stroke="black" d="M77.3431,-71.6966C77.3431,-63.9827 77.3431,-54.7125 77.3431,-46.1124"/>
<polygon fill="black" stroke="black" points="80.8432,-46.1043 77.3431,-36.1043 73.8432,-46.1044 80.8432,-46.1043"/>
</g>
</g>
</svg>
